<?xml version="1.0" encoding="UTF-8" standalone="no"?>
<!DOCTYPE svg PUBLIC "-//W3C//DTD SVG 1.1//EN"
 "http://www.w3.org/Graphics/SVG/1.1/DTD/svg11.dtd">
<!-- Generated by graphviz version 2.42.4 (0)
 -->
<!-- Title: Knowledge Graph Pages: 1 -->
<svg width="492pt" height="152pt"
 viewBox="0.00 0.00 492.16 152.00" xmlns="http://www.w3.org/2000/svg" xmlns:xlink="http://www.w3.org/1999/xlink">
<g id="graph0" class="graph" transform="scale(1 1) rotate(0) translate(4 148)">
<title>Knowledge Graph</title>
<polygon fill="white" stroke="transparent" points="-4,4 -4,-148 488.16,-148 488.16,4 -4,4"/>
<!-- KG -->
<g id="node1" class="node">
<title>KG</title>
<ellipse fill="none" stroke="black" cx="147.54" cy="-72" rx="93.68" ry="18"/>
<text text-anchor="middle" x="147.54" y="-68.3" font-family="Times,serif" font-size="14.00">Knowledge Graph</text>
</g>
<!-- wiki -->
<g id="node2" class="node">
<title>wiki</title>
<g id="a_node2"><a xlink:href="https://wikipedia.org" xlink:title="wiki pedia">
<ellipse fill="none" stroke="black" cx="414.62" cy="-72" rx="57.69" ry="18"/>
<text text-anchor="middle" x="414.62" y="-68.3" font-family="Times,serif" font-size="14.00">wiki pedia</text>
</a>
</g>
</g>
<!-- KG&#45;&gt;wiki -->
<g id="edge1" class="edge">
<title>KG&#45;&gt;wiki</title>
<path fill="none" stroke="black" d="M241.25,-72C275.87,-72 314.49,-72 346.39,-72"/>
<polygon fill="black" stroke="black" points="346.49,-75.5 356.49,-72 346.49,-68.5 346.49,-75.5"/>
</g>
<!-- SAT_solver -->
<g id="node3" class="node">
<title>SAT_solver</title>
<polygon fill="none" stroke="black" points="147.54,-36 62.91,-18 147.54,0 232.16,-18 147.54,-36"/>
<text text-anchor="middle" x="147.54" y="-14.3" font-family="Times,serif" font-size="14.00">SAT solver</text>
</g>
<!-- SAT_solver&#45;&gt;wiki -->
<g id="edge3" class="edge">
<title>SAT_solver&#45;&gt;wiki</title>
<g id="a_edge3"><a xlink:href="https://en.wikipedia.org/wiki/SAT_solver">
<path fill="none" stroke="black" d="M194.83,-26.02C223.71,-31.15 261.63,-38.11 295.07,-45 315.77,-49.26 338.4,-54.32 358.29,-58.9"/>
<polygon fill="black" stroke="black" points="357.59,-62.32 368.12,-61.17 359.16,-55.5 357.59,-62.32"/>
</a>
</g>
</g>
<!-- Ycombinator -->
<g id="node4" class="node">
<title>Ycombinator</title>
<g id="a_node4"><a xlink:href="news.ycombinator.com" xlink:title="Ycombinator">
<ellipse fill="none" stroke="black" cx="414.62" cy="-18" rx="69.59" ry="18"/>
<text text-anchor="middle" x="414.62" y="-14.3" font-family="Times,serif" font-size="14.00">Ycombinator</text>
</a>
</g>
</g>
<!-- SAT_solver&#45;&gt;Ycombinator -->
<g id="edge2" class="edge">
<title>SAT_solver&#45;&gt;Ycombinator</title>
<g id="a_edge2"><a xlink:href="https://news.ycombinator.com/item?id=36087464">
<path fill="none" stroke="black" d="M232.41,-18C265.12,-18 302.43,-18 334.65,-18"/>
<polygon fill="black" stroke="black" points="334.92,-21.5 344.92,-18 334.92,-14.5 334.92,-21.5"/>
</a>
</g>
</g>
<!-- rust -->
<g id="node5" class="node">
<title>rust</title>
<ellipse fill="none" stroke="black" cx="147.54" cy="-126" rx="147.57" ry="18"/>
<text text-anchor="middle" x="147.54" y="-122.3" font-family="Times,serif" font-size="14.00">Rust Programming Language</text>
</g>
<!-- c_library -->
<g id="node6" class="node">
<title>c_library</title>
<ellipse fill="none" stroke="black" cx="414.62" cy="-126" rx="51.19" ry="18"/>
<text text-anchor="middle" x="414.62" y="-122.3" font-family="Times,serif" font-size="14.00">c_library</text>
</g>
<!-- rust&#45;&gt;c_library -->
<g id="edge4" class="edge">
<title>rust&#45;&gt;c_library</title>
<g id="a_edge4"><a xlink:href="https://graphviz.org/docs/edges/" xlink:title="hi">
<path fill="none" stroke="black" d="M295.42,-126C315.79,-126 335.7,-126 353.2,-126"/>
<polygon fill="black" stroke="black" points="353.21,-129.5 363.21,-126 353.21,-122.5 353.21,-129.5"/>
</a>
</g>
<g id="a_edge4&#45;label"><a xlink:href="https://graphviz.org/docs/edges/" xlink:title="hi">
<text text-anchor="middle" x="320.07" y="-129.8" font-family="Times,serif" font-size="14.00">hi</text>
</a>
</g>
<g id="a_edge4&#45;headlabel"><a xlink:href="https://graphviz.org/docs/edges/" xlink:title="bye">
<text text-anchor="middle" x="350.21" y="-114.8" font-family="Times,serif" font-size="14.00">bye</text>
</a>
</g>
</g>
</g>
</svg>
