<?xml version="1.0" encoding="UTF-8" standalone="no"?>
<!DOCTYPE svg PUBLIC "-//W3C//DTD SVG 1.1//EN"
 "http://www.w3.org/Graphics/SVG/1.1/DTD/svg11.dtd">
<!-- Generated by graphviz version 2.44.0 ()
 -->
<!-- Title: Knowledge Graph Pages: 1 -->
<svg width="645pt" height="131pt"
 viewBox="0.00 0.00 645.43 131.00" xmlns="http://www.w3.org/2000/svg" xmlns:xlink="http://www.w3.org/1999/xlink">
<g id="graph0" class="graph" transform="scale(1 1) rotate(0) translate(4 127)">
<title>Knowledge Graph</title>
<polygon fill="white" stroke="transparent" points="-4,4 -4,-127 641.43,-127 641.43,4 -4,4"/>
<!-- KG -->
<g id="node1" class="node">
<title>KG</title>
<ellipse fill="none" stroke="black" cx="83.84" cy="-105" rx="83.69" ry="18"/>
<text text-anchor="middle" x="83.84" y="-101.3" font-family="Times,serif" font-size="14.00">Knowledge Graph</text>
</g>
<!-- wiki -->
<g id="node2" class="node">
<title>wiki</title>
<g id="a_node2"><a xlink:href="https://wikipedia.org" xlink:title="wiki pedia">
<ellipse fill="none" stroke="black" cx="105.84" cy="-18" rx="59.59" ry="18"/>
<text text-anchor="middle" x="105.84" y="-14.3" font-family="Times,serif" font-size="14.00">wiki pedia</text>
</a>
</g>
</g>
<!-- KG&#45;&gt;wiki -->
<g id="edge1" class="edge">
<title>KG&#45;&gt;wiki</title>
<path fill="none" stroke="black" d="M88.29,-86.8C91.31,-75.16 95.35,-59.55 98.79,-46.24"/>
<polygon fill="black" stroke="black" points="102.28,-46.73 101.4,-36.18 95.5,-44.98 102.28,-46.73"/>
</g>
<!-- SAT_solver -->
<g id="node3" class="node">
<title>SAT_solver</title>
<polygon fill="none" stroke="black" points="269.84,-123 185.22,-105 269.84,-87 354.47,-105 269.84,-123"/>
<text text-anchor="middle" x="269.84" y="-101.3" font-family="Times,serif" font-size="14.00">SAT solver</text>
</g>
<!-- SAT_solver&#45;&gt;wiki -->
<g id="edge3" class="edge">
<title>SAT_solver&#45;&gt;wiki</title>
<g id="a_edge3"><a xlink:href="https://en.wikipedia.org/wiki/SAT_solver">
<path fill="none" stroke="black" d="M246.35,-91.82C219.5,-77.91 175.2,-54.95 143.52,-38.53"/>
<polygon fill="black" stroke="black" points="145.03,-35.37 134.54,-33.87 141.81,-41.58 145.03,-35.37"/>
</a>
</g>
</g>
<!-- Ycombinator -->
<g id="node4" class="node">
<title>Ycombinator</title>
<g id="a_node4"><a xlink:href="news.ycombinator.com" xlink:title="Ycombinator">
<ellipse fill="none" stroke="black" cx="269.84" cy="-18" rx="64.19" ry="18"/>
<text text-anchor="middle" x="269.84" y="-14.3" font-family="Times,serif" font-size="14.00">Ycombinator</text>
</a>
</g>
</g>
<!-- SAT_solver&#45;&gt;Ycombinator -->
<g id="edge2" class="edge">
<title>SAT_solver&#45;&gt;Ycombinator</title>
<g id="a_edge2"><a xlink:href="https://news.ycombinator.com/item?id=36087464">
<path fill="none" stroke="black" d="M269.84,-86.8C269.84,-75.16 269.84,-59.55 269.84,-46.24"/>
<polygon fill="black" stroke="black" points="273.34,-46.18 269.84,-36.18 266.34,-46.18 273.34,-46.18"/>
</a>
</g>
</g>
<!-- rust -->
<g id="node5" class="node">
<title>rust</title>
<ellipse fill="none" stroke="black" cx="504.84" cy="-105" rx="132.68" ry="18"/>
<text text-anchor="middle" x="504.84" y="-101.3" font-family="Times,serif" font-size="14.00">Rust Programming Language</text>
</g>
<!-- C -->
<g id="node6" class="node">
<title>C</title>
<ellipse fill="none" stroke="black" cx="504.84" cy="-18" rx="27" ry="18"/>
<text text-anchor="middle" x="504.84" y="-14.3" font-family="Times,serif" font-size="14.00">C</text>
</g>
<!-- rust&#45;&gt;C -->
<g id="edge4" class="edge">
<title>rust&#45;&gt;C</title>
<g id="a_edge4"><a xlink:href="https://graphviz.org/docs/edges/" xlink:title="dynamic library">
<path fill="none" stroke="black" d="M504.84,-86.8C504.84,-75.16 504.84,-59.55 504.84,-46.24"/>
<polygon fill="black" stroke="black" points="508.34,-46.18 504.84,-36.18 501.34,-46.18 508.34,-46.18"/>
</a>
</g>
<g id="a_edge4&#45;label"><a xlink:href="https://graphviz.org/docs/edges/" xlink:title="dynamic library">
<text text-anchor="middle" x="561.34" y="-57.8" font-family="Times,serif" font-size="14.00">dynamic library</text>
</a>
</g>
</g>
</g>
</svg>
