<?xml version="1.0" encoding="UTF-8" standalone="no"?>
<!DOCTYPE svg PUBLIC "-//W3C//DTD SVG 1.1//EN"
 "http://www.w3.org/Graphics/SVG/1.1/DTD/svg11.dtd">
<!-- Generated by graphviz version 2.42.4 (0)
 -->
<!-- Pages: 1 -->
<svg width="492pt" height="139pt"
 viewBox="0.00 0.00 491.94 139.00" xmlns="http://www.w3.org/2000/svg" xmlns:xlink="http://www.w3.org/1999/xlink">
<g id="graph0" class="graph" transform="scale(1 1) rotate(0) translate(4 135)">
<g id="a_graph0"><a xlink:href="https://www.kent.ac.uk/" xlink:title="Kent University">
<polygon fill="white" stroke="transparent" points="-4,4 -4,-135 487.94,-135 487.94,4 -4,4"/>
<text text-anchor="middle" x="241.97" y="-7.8" font-family="Times,serif" font-size="14.00">Kent University</text>
</a>
</g>
<!-- world -->
<g id="node1" class="node">
<title>world</title>
<g id="a_node1"><a xlink:href="https://yahoo.com" xlink:title="world">
<ellipse fill="none" stroke="black" cx="63.69" cy="-113" rx="37.09" ry="18"/>
<text text-anchor="middle" x="63.69" y="-109.3" font-family="Times,serif" font-size="14.00">world</text>
</a>
</g>
</g>
<!-- mark -->
<g id="node2" class="node">
<title>mark</title>
<g id="a_node2"><a xlink:href="https://www.kent.ac.uk/computing/people/3126/batty-mark" xlink:title="Mark Batty">
<ellipse fill="none" stroke="black" cx="63.69" cy="-41" rx="63.89" ry="18"/>
<text text-anchor="middle" x="63.69" y="-37.3" font-family="Times,serif" font-size="14.00">Mark Batty</text>
</a>
</g>
</g>
<!-- world&#45;&gt;mark -->
<g id="edge2" class="edge">
<title>world&#45;&gt;mark</title>
<path fill="none" stroke="black" d="M63.69,-94.7C63.69,-86.98 63.69,-77.71 63.69,-69.11"/>
<polygon fill="black" stroke="black" points="67.19,-69.1 63.69,-59.1 60.19,-69.1 67.19,-69.1"/>
</g>
<!-- kent university -->
<g id="node3" class="node">
<title>kent university</title>
<ellipse fill="none" stroke="black" cx="208.69" cy="-113" rx="81.49" ry="18"/>
<text text-anchor="middle" x="208.69" y="-109.3" font-family="Times,serif" font-size="14.00">kent university</text>
</g>
<!-- Mark Batty -->
<g id="node4" class="node">
<title>Mark Batty</title>
<ellipse fill="none" stroke="black" cx="208.69" cy="-41" rx="63.89" ry="18"/>
<text text-anchor="middle" x="208.69" y="-37.3" font-family="Times,serif" font-size="14.00">Mark Batty</text>
</g>
<!-- kent university&#45;&gt;Mark Batty -->
<g id="edge1" class="edge">
<title>kent university&#45;&gt;Mark Batty</title>
<path fill="none" stroke="black" d="M208.69,-94.7C208.69,-86.98 208.69,-77.71 208.69,-69.11"/>
<polygon fill="black" stroke="black" points="212.19,-69.1 208.69,-59.1 205.19,-69.1 212.19,-69.1"/>
</g>
<!-- Elahe -->
<g id="node5" class="node">
<title>Elahe</title>
<ellipse fill="none" stroke="black" cx="344.69" cy="-113" rx="37.09" ry="18"/>
<text text-anchor="middle" x="344.69" y="-109.3" font-family="Times,serif" font-size="14.00">Elahe</text>
</g>
<!-- Arash -->
<g id="node6" class="node">
<title>Arash</title>
<ellipse fill="none" stroke="black" cx="344.69" cy="-41" rx="37.89" ry="18"/>
<text text-anchor="middle" x="344.69" y="-37.3" font-family="Times,serif" font-size="14.00">Arash</text>
</g>
<!-- Elahe&#45;&gt;Arash -->
<g id="edge3" class="edge">
<title>Elahe&#45;&gt;Arash</title>
<path fill="none" stroke="black" d="M344.69,-94.7C344.69,-86.98 344.69,-77.71 344.69,-69.11"/>
<polygon fill="black" stroke="black" points="348.19,-69.1 344.69,-59.1 341.19,-69.1 348.19,-69.1"/>
</g>
<!-- thanks -->
<g id="node7" class="node">
<title>thanks</title>
<ellipse fill="none" stroke="black" cx="441.69" cy="-113" rx="42.49" ry="18"/>
<text text-anchor="middle" x="441.69" y="-109.3" font-family="Times,serif" font-size="14.00">thanks</text>
</g>
</g>
</svg>
