<?xml version="1.0" encoding="UTF-8" standalone="no"?>
<!DOCTYPE svg PUBLIC "-//W3C//DTD SVG 1.1//EN"
 "http://www.w3.org/Graphics/SVG/1.1/DTD/svg11.dtd">
<!-- Generated by graphviz version 2.44.0 ()
 -->
<!-- Pages: 1 -->
<svg width="756pt" height="383pt"
 viewBox="0.00 0.00 756.00 383.00" xmlns="http://www.w3.org/2000/svg" xmlns:xlink="http://www.w3.org/1999/xlink">
<g id="graph0" class="graph" transform="scale(1 1) rotate(0) translate(4 379)">
<polygon fill="white" stroke="transparent" points="-4,4 -4,-379 752,-379 752,4 -4,4"/>
<g id="clust2" class="cluster">
<title>cluster_graphviz</title>
<g id="a_clust2"><a xlink:href="https://graphviz.gitlab.io/doc/info/lang.html" xlink:title="GraphViz Documentation">
<polygon fill="none" stroke="black" stroke-dasharray="1,5" points="546,-230.5 546,-367 740,-367 740,-230.5 546,-230.5"/>
<text text-anchor="middle" x="643" y="-351.8" font-family="Times,serif" font-size="14.00">GraphViz Documentation</text>
</a>
</g>
</g>
<!-- maintainer -->
<g id="node1" class="node">
<title>maintainer</title>
<g id="a_node1"><a xlink:href="https://github.com/matklad" xlink:title="maintainer">
<polygon fill="pink" stroke="pink" points="92,-336 0,-336 0,-300 92,-300 92,-336"/>
<text text-anchor="middle" x="46" y="-314.3" font-family="Times,serif" font-size="14.00">maintainer</text>
</a>
</g>
</g>
<!-- rust_analyzer -->
<g id="node2" class="node">
<title>rust_analyzer</title>
<g id="a_node2"><a xlink:href="https://rust-analyzer.github.io/" xlink:title="Rust Analyzer">
<ellipse fill="none" stroke="black" cx="238" cy="-246" rx="74.19" ry="18"/>
<text text-anchor="middle" x="238" y="-242.3" font-family="Times,serif" font-size="14.00">Rust Analyzer</text>
</a>
</g>
</g>
<!-- maintainer&#45;&gt;rust_analyzer -->
<g id="edge7" class="edge">
<title>maintainer&#45;&gt;rust_analyzer</title>
<path fill="none" stroke="black" d="M101.88,-296.63C132.94,-285.3 170.84,-271.49 198.75,-261.31"/>
<polygon fill="black" stroke="black" points="100.67,-293.34 92.48,-300.05 103.07,-299.92 100.67,-293.34"/>
</g>
<!-- manual -->
<g id="node10" class="node">
<title>manual</title>
<g id="a_node10"><a xlink:href="https://rust-analyzer.github.io/manual.html#toolchain" xlink:title="manual">
<text text-anchor="middle" x="238" y="-180.8" font-family="Times,serif" font-size="14.00">manual</text>
</a>
</g>
</g>
<!-- rust_analyzer&#45;&gt;manual -->
<g id="edge5" class="edge">
<title>rust_analyzer&#45;&gt;manual</title>
<path fill="none" stroke="black" stroke-dasharray="5,2" d="M238,-227.79C238,-215.85 238,-200.6 238,-192.06"/>
</g>
<!-- lsp -->
<g id="node3" class="node">
<title>lsp</title>
<g id="a_node3"><a xlink:href="https://microsoft.github.io/language-server-protocol/" xlink:title="Language server protocol">
<ellipse fill="none" stroke="black" cx="238" cy="-318" rx="128.08" ry="18"/>
<text text-anchor="middle" x="238" y="-314.3" font-family="Times,serif" font-size="14.00">Language server protocol</text>
</a>
</g>
</g>
<!-- lsp&#45;&gt;rust_analyzer -->
<g id="edge2" class="edge">
<title>lsp&#45;&gt;rust_analyzer</title>
<path fill="none" stroke="black" d="M238,-299.7C238,-291.98 238,-282.71 238,-274.11"/>
<polygon fill="black" stroke="black" points="241.5,-274.1 238,-264.1 234.5,-274.1 241.5,-274.1"/>
</g>
<!-- rust -->
<g id="node4" class="node">
<title>rust</title>
<g id="a_node4"><a xlink:href="https://www.rust-lang.org/" xlink:title="Rust">
<ellipse fill="none" stroke="black" cx="415" cy="-318" rx="30.59" ry="18"/>
<text text-anchor="middle" x="415" y="-314.3" font-family="Times,serif" font-size="14.00">Rust</text>
</a>
</g>
</g>
<!-- rust&#45;&gt;rust_analyzer -->
<g id="edge1" class="edge">
<title>rust&#45;&gt;rust_analyzer</title>
<path fill="none" stroke="black" d="M390.94,-306.62C385.7,-304.41 380.17,-302.1 375,-300 345.54,-288.04 312.27,-275.16 285.9,-265.09"/>
<polygon fill="black" stroke="black" points="287.11,-261.81 276.52,-261.51 284.62,-268.35 287.11,-261.81"/>
</g>
<!-- belt -->
<g id="node5" class="node">
<title>belt</title>
<g id="a_node5"><a xlink:href="https://plv.mpi-sws.org/rustbelt/" xlink:title="belt">
<ellipse fill="none" stroke="black" cx="388" cy="-246" rx="30.59" ry="18"/>
<text text-anchor="middle" x="388" y="-242.3" font-family="Times,serif" font-size="14.00">belt</text>
</a>
</g>
</g>
<!-- rust&#45;&gt;belt -->
<g id="edge9" class="edge">
<title>rust&#45;&gt;belt</title>
<path fill="none" stroke="black" d="M408.46,-300.05C405.38,-292.06 401.63,-282.33 398.18,-273.4"/>
<polygon fill="black" stroke="black" points="401.34,-271.86 394.48,-263.79 394.81,-274.38 401.34,-271.86"/>
</g>
<!-- articles -->
<g id="node6" class="node">
<title>articles</title>
<g id="a_node6"><a xlink:href="https://alastairreid.github.io/RelatedWork/notes/rust-language/" xlink:title="articles">
<ellipse fill="none" stroke="black" cx="487" cy="-246" rx="50.09" ry="18"/>
<text text-anchor="middle" x="487" y="-242.3" font-family="Times,serif" font-size="14.00">articles</text>
</a>
</g>
</g>
<!-- rust&#45;&gt;articles -->
<g id="edge8" class="edge">
<title>rust&#45;&gt;articles</title>
<path fill="none" stroke="black" d="M430.27,-302.15C439.86,-292.83 452.43,-280.61 463.3,-270.04"/>
<polygon fill="black" stroke="black" points="465.77,-272.52 470.5,-263.04 460.89,-267.5 465.77,-272.52"/>
</g>
<!-- release -->
<g id="node7" class="node">
<title>release</title>
<g id="a_node7"><a xlink:href="https://github.com/rust-lang/rust-analyzer/releases" xlink:title="release">
<polygon fill="none" stroke="black" points="234.5,-141 165.5,-141 165.5,-72 234.5,-72 234.5,-141"/>
<text text-anchor="middle" x="200" y="-102.8" font-family="Times,serif" font-size="14.00">release</text>
</a>
</g>
</g>
<!-- musl -->
<g id="node8" class="node">
<title>musl</title>
<g id="a_node8"><a xlink:href="https://www.musl-libc.org/" xlink:title="musl">
<ellipse fill="none" stroke="black" cx="189" cy="-18" rx="30.59" ry="18"/>
<text text-anchor="middle" x="189" y="-14.3" font-family="Times,serif" font-size="14.00">musl</text>
</a>
</g>
</g>
<!-- release&#45;&gt;musl -->
<g id="edge10" class="edge">
<title>release&#45;&gt;musl</title>
<path fill="none" stroke="black" stroke-dasharray="5,2" d="M195.72,-71.81C194.17,-59.67 192.49,-46.46 191.2,-36.3"/>
</g>
<!-- ra_ap_rust_analyzer_documentation -->
<g id="node9" class="node">
<title>ra_ap_rust_analyzer_documentation</title>
<ellipse fill="none" stroke="black" cx="288" cy="-18" rx="50.09" ry="18"/>
<text text-anchor="middle" x="288" y="-14.3" font-family="Times,serif" font-size="14.00">document</text>
</g>
<!-- manual&#45;&gt;release -->
<g id="edge6" class="edge">
<title>manual&#45;&gt;release</title>
<path fill="none" stroke="black" stroke-dasharray="5,2" d="M234.63,-176.76C230.6,-168.69 223.55,-154.6 216.86,-141.22"/>
</g>
<!-- crates -->
<g id="node11" class="node">
<title>crates</title>
<g id="a_node11"><a xlink:href="https://rust-analyzer.github.io/manual.html#crates" xlink:title="crates">
<text text-anchor="middle" x="282" y="-102.8" font-family="Times,serif" font-size="14.00">crates</text>
</a>
</g>
</g>
<!-- manual&#45;&gt;crates -->
<g id="edge3" class="edge">
<title>manual&#45;&gt;crates</title>
<path fill="none" stroke="black" d="M241.9,-176.76C248.8,-164.84 263.31,-139.78 272.85,-123.3"/>
<polygon fill="black" stroke="black" points="276.06,-124.75 278.04,-114.34 270,-121.24 276.06,-124.75"/>
</g>
<!-- crates&#45;&gt;ra_ap_rust_analyzer_documentation -->
<g id="edge4" class="edge">
<title>crates&#45;&gt;ra_ap_rust_analyzer_documentation</title>
<path fill="none" stroke="black" d="M282.45,-99C283.22,-87.91 284.83,-64.74 286.11,-46.18"/>
<polygon fill="black" stroke="black" points="289.61,-46.4 286.81,-36.18 282.62,-45.91 289.61,-46.4"/>
</g>
<!-- cluster -->
<g id="node12" class="node">
<title>cluster</title>
<g id="a_node12"><a xlink:href="https://graphviz.gitlab.io/doc/info/lang.html#subgraphs-and-clusters" xlink:title="cluster">
<ellipse fill="none" stroke="black" cx="687" cy="-318" rx="44.69" ry="18"/>
<text text-anchor="middle" x="687" y="-314.3" font-family="Times,serif" font-size="14.00">cluster</text>
</a>
</g>
</g>
<!-- shape -->
<g id="node13" class="node">
<title>shape</title>
<g id="a_node13"><a xlink:href="https://graphviz.org/doc/info/shapes.html" xlink:title="shape">
<ellipse fill="none" stroke="black" cx="589" cy="-318" rx="35.19" ry="18"/>
<text text-anchor="middle" x="589" y="-314.3" font-family="Times,serif" font-size="14.00">shape</text>
</a>
</g>
</g>
<!-- example -->
<g id="node14" class="node">
<title>example</title>
<g id="a_node14"><a xlink:href="https://observablehq.com/@brianstringfellow/graphvis-subgraph-table-label" xlink:title="example">
<text text-anchor="middle" x="582" y="-242.3" font-family="Times,serif" font-size="14.00">example</text>
</a>
</g>
</g>
</g>
</svg>
