<?xml version="1.0" encoding="UTF-8" standalone="no"?>
<!DOCTYPE svg PUBLIC "-//W3C//DTD SVG 1.1//EN"
 "http://www.w3.org/Graphics/SVG/1.1/DTD/svg11.dtd">
<!-- Generated by graphviz version 2.42.4 (0)
 -->
<!-- Pages: 1 -->
<svg width="829pt" height="382pt"
 viewBox="0.00 0.00 829.00 382.00" xmlns="http://www.w3.org/2000/svg" xmlns:xlink="http://www.w3.org/1999/xlink">
<g id="graph0" class="graph" transform="scale(1 1) rotate(0) translate(4 378)">
<polygon fill="white" stroke="transparent" points="-4,4 -4,-378 825,-378 825,4 -4,4"/>
<g id="clust3" class="cluster">
<title>cluster_graphviz</title>
<g id="a_clust3"><a xlink:href="https://graphviz.gitlab.io/doc/info/lang.html" xlink:title="GraphViz Documentation">
<defs>
<linearGradient id="l_0" gradientUnits="userSpaceOnUse" x1="617" y1="-297.75" x2="813" y2="-297.75" >
<stop offset="0" style="stop-color:yellow;stop-opacity:1.;"/>
<stop offset="1" style="stop-color:red;stop-opacity:1.;"/>
</linearGradient>
</defs>
<polygon fill="url(#l_0)" stroke="yellow:red" points="617,-229.5 617,-366 813,-366 813,-229.5 617,-229.5"/>
<text text-anchor="middle" x="715" y="-350.8" font-family="Times,serif" font-size="14.00">GraphViz Documentation</text>
</a>
</g>
</g>
<!-- victor -->
<g id="node1" class="node">
<title>victor</title>
<g id="a_node1"><a xlink:href="https://people.mpi-sws.org/~viktor/" xlink:title="victor">
<defs>
<linearGradient id="l_1" gradientUnits="userSpaceOnUse" x1="0" y1="-317" x2="58" y2="-317" >
<stop offset="0" style="stop-color:pink;stop-opacity:1.;"/>
<stop offset="1" style="stop-color:white;stop-opacity:1.;"/>
</linearGradient>
</defs>
<polygon fill="url(#l_1)" stroke="pink:white" points="58,-335 0,-335 0,-299 58,-299 58,-335"/>
<text text-anchor="middle" x="29" y="-313.3" font-family="Times,serif" font-size="14.00">victor</text>
</a>
</g>
</g>
<!-- maintainer -->
<g id="node2" class="node">
<title>maintainer</title>
<g id="a_node2"><a xlink:href="https://github.com/matklad" xlink:title="maintainer">
<defs>
<linearGradient id="l_2" gradientUnits="userSpaceOnUse" x1="76.5" y1="-317" x2="171.5" y2="-317" >
<stop offset="0" style="stop-color:pink;stop-opacity:1.;"/>
<stop offset="1" style="stop-color:white;stop-opacity:1.;"/>
</linearGradient>
</defs>
<polygon fill="url(#l_2)" stroke="pink:white" points="171.5,-335 76.5,-335 76.5,-299 171.5,-299 171.5,-335"/>
<text text-anchor="middle" x="124" y="-313.3" font-family="Times,serif" font-size="14.00">maintainer</text>
</a>
</g>
</g>
<!-- rust_analyzer -->
<g id="node3" class="node">
<title>rust_analyzer</title>
<g id="a_node3"><a xlink:href="https://rust-analyzer.github.io/" xlink:title="Rust Analyzer">
<ellipse fill="none" stroke="black" cx="319" cy="-245" rx="75.29" ry="18"/>
<text text-anchor="middle" x="319" y="-241.3" font-family="Times,serif" font-size="14.00">Rust Analyzer</text>
</a>
</g>
</g>
<!-- maintainer&#45;&gt;rust_analyzer -->
<g id="edge7" class="edge">
<title>maintainer&#45;&gt;rust_analyzer</title>
<path fill="none" stroke="black" d="M181.22,-295.46C212.63,-284.18 250.82,-270.47 279.02,-260.35"/>
<polygon fill="black" stroke="black" points="179.93,-292.2 171.7,-298.88 182.3,-298.79 179.93,-292.2"/>
</g>
<!-- manual -->
<g id="node12" class="node">
<title>manual</title>
<g id="a_node12"><a xlink:href="https://rust-analyzer.github.io/manual.html#toolchain" xlink:title="manual">
<text text-anchor="middle" x="319" y="-179.8" font-family="Times,serif" font-size="14.00">manual</text>
</a>
</g>
</g>
<!-- rust_analyzer&#45;&gt;manual -->
<g id="edge5" class="edge">
<title>rust_analyzer&#45;&gt;manual</title>
<path fill="none" stroke="black" stroke-dasharray="5,2" d="M319,-226.79C319,-214.85 319,-199.6 319,-191.06"/>
</g>
<!-- lsp -->
<g id="node4" class="node">
<title>lsp</title>
<g id="a_node4"><a xlink:href="https://microsoft.github.io/language-server-protocol/" xlink:title="Language server protocol">
<ellipse fill="none" stroke="black" cx="319" cy="-317" rx="129.98" ry="18"/>
<text text-anchor="middle" x="319" y="-313.3" font-family="Times,serif" font-size="14.00">Language server protocol</text>
</a>
</g>
</g>
<!-- lsp&#45;&gt;rust_analyzer -->
<g id="edge2" class="edge">
<title>lsp&#45;&gt;rust_analyzer</title>
<path fill="none" stroke="black" d="M319,-298.7C319,-290.98 319,-281.71 319,-273.11"/>
<polygon fill="black" stroke="black" points="322.5,-273.1 319,-263.1 315.5,-273.1 322.5,-273.1"/>
</g>
<!-- rust -->
<g id="node5" class="node">
<title>rust</title>
<g id="a_node5"><a xlink:href="https://www.rust-lang.org/" xlink:title="Rust">
<ellipse fill="none" stroke="black" cx="499" cy="-317" rx="32.49" ry="18"/>
<text text-anchor="middle" x="499" y="-313.3" font-family="Times,serif" font-size="14.00">Rust</text>
</a>
</g>
</g>
<!-- rust&#45;&gt;rust_analyzer -->
<g id="edge1" class="edge">
<title>rust&#45;&gt;rust_analyzer</title>
<path fill="none" stroke="black" d="M473.89,-305.46C468.65,-303.29 463.16,-301.05 458,-299 428.08,-287.1 394.33,-274.21 367.58,-264.13"/>
<polygon fill="black" stroke="black" points="368.65,-260.8 358.06,-260.55 366.19,-267.35 368.65,-260.8"/>
</g>
<!-- belt -->
<g id="node6" class="node">
<title>belt</title>
<g id="a_node6"><a xlink:href="https://plv.mpi-sws.org/rustbelt/" xlink:title="belt">
<ellipse fill="none" stroke="black" cx="456" cy="-245" rx="28.7" ry="18"/>
<text text-anchor="middle" x="456" y="-241.3" font-family="Times,serif" font-size="14.00">belt</text>
</a>
</g>
</g>
<!-- rust&#45;&gt;belt -->
<g id="edge9" class="edge">
<title>rust&#45;&gt;belt</title>
<path fill="none" stroke="black" d="M489.03,-299.76C483.76,-291.19 477.19,-280.49 471.3,-270.9"/>
<polygon fill="black" stroke="black" points="474.14,-268.84 465.92,-262.15 468.17,-272.5 474.14,-268.84"/>
</g>
<!-- articles -->
<g id="node7" class="node">
<title>articles</title>
<g id="a_node7"><a xlink:href="https://alastairreid.github.io/RelatedWork/notes/rust-language/" xlink:title="articles">
<ellipse fill="none" stroke="black" cx="548" cy="-245" rx="45.49" ry="18"/>
<text text-anchor="middle" x="548" y="-241.3" font-family="Times,serif" font-size="14.00">articles</text>
</a>
</g>
</g>
<!-- rust&#45;&gt;articles -->
<g id="edge8" class="edge">
<title>rust&#45;&gt;articles</title>
<path fill="none" stroke="black" d="M510.36,-299.76C516.34,-291.23 523.79,-280.58 530.49,-271.02"/>
<polygon fill="black" stroke="black" points="533.49,-272.83 536.36,-262.63 527.75,-268.82 533.49,-272.83"/>
</g>
<!-- release -->
<g id="node8" class="node">
<title>release</title>
<g id="a_node8"><a xlink:href="https://github.com/rust-lang/rust-analyzer/releases" xlink:title="release">
<polygon fill="none" stroke="black" points="316,-140 248,-140 248,-72 316,-72 316,-140"/>
<text text-anchor="middle" x="282" y="-102.3" font-family="Times,serif" font-size="14.00">release</text>
</a>
</g>
</g>
<!-- musl -->
<g id="node9" class="node">
<title>musl</title>
<g id="a_node9"><a xlink:href="https://www.musl-libc.org/" xlink:title="musl">
<ellipse fill="none" stroke="black" cx="266" cy="-18" rx="33.29" ry="18"/>
<text text-anchor="middle" x="266" y="-14.3" font-family="Times,serif" font-size="14.00">musl</text>
</a>
</g>
</g>
<!-- release&#45;&gt;musl -->
<g id="edge10" class="edge">
<title>release&#45;&gt;musl</title>
<path fill="none" stroke="black" stroke-dasharray="5,2" d="M275.86,-72C273.57,-59.68 271.06,-46.21 269.15,-35.93"/>
</g>
<!-- Coq -->
<g id="node10" class="node">
<title>Coq</title>
<g id="a_node10"><a xlink:href="https://coq.inria.fr/" xlink:title="Coq">
<ellipse fill="none" stroke="black" cx="578" cy="-317" rx="28.7" ry="18"/>
<text text-anchor="middle" x="578" y="-313.3" font-family="Times,serif" font-size="14.00">Coq</text>
</a>
</g>
</g>
<!-- ra_ap_rust_analyzer_documentation -->
<g id="node11" class="node">
<title>ra_ap_rust_analyzer_documentation</title>
<ellipse fill="none" stroke="black" cx="374" cy="-18" rx="56.59" ry="18"/>
<text text-anchor="middle" x="374" y="-14.3" font-family="Times,serif" font-size="14.00">document</text>
</g>
<!-- manual&#45;&gt;release -->
<g id="edge6" class="edge">
<title>manual&#45;&gt;release</title>
<path fill="none" stroke="black" stroke-dasharray="5,2" d="M315.72,-175.8C311.75,-167.72 304.81,-153.54 298.24,-140.14"/>
</g>
<!-- crates -->
<g id="node13" class="node">
<title>crates</title>
<g id="a_node13"><a xlink:href="https://rust-analyzer.github.io/manual.html#crates" xlink:title="crates">
<text text-anchor="middle" x="365" y="-102.3" font-family="Times,serif" font-size="14.00">crates</text>
</a>
</g>
</g>
<!-- manual&#45;&gt;crates -->
<g id="edge3" class="edge">
<title>manual&#45;&gt;crates</title>
<path fill="none" stroke="black" d="M323.08,-175.8C330.29,-163.96 345.46,-139.07 355.44,-122.69"/>
<polygon fill="black" stroke="black" points="358.65,-124.15 360.86,-113.79 352.67,-120.51 358.65,-124.15"/>
</g>
<!-- crates&#45;&gt;ra_ap_rust_analyzer_documentation -->
<g id="edge4" class="edge">
<title>crates&#45;&gt;ra_ap_rust_analyzer_documentation</title>
<path fill="none" stroke="black" d="M365.71,-98.25C366.86,-87.2 369.22,-64.63 371.13,-46.4"/>
<polygon fill="black" stroke="black" points="374.63,-46.59 372.19,-36.28 367.67,-45.86 374.63,-46.59"/>
</g>
<!-- cluster -->
<g id="node14" class="node">
<title>cluster</title>
<g id="a_node14"><a xlink:href="https://graphviz.gitlab.io/doc/info/lang.html#subgraphs-and-clusters" xlink:title="cluster">
<ellipse fill="none" stroke="black" cx="762" cy="-317" rx="42.79" ry="18"/>
<text text-anchor="middle" x="762" y="-313.3" font-family="Times,serif" font-size="14.00">cluster</text>
</a>
</g>
</g>
<!-- shape -->
<g id="node15" class="node">
<title>shape</title>
<g id="a_node15"><a xlink:href="https://graphviz.org/doc/info/shapes.html" xlink:title="shape">
<ellipse fill="none" stroke="black" cx="663" cy="-317" rx="38.19" ry="18"/>
<text text-anchor="middle" x="663" y="-313.3" font-family="Times,serif" font-size="14.00">shape</text>
</a>
</g>
</g>
<!-- example -->
<g id="node16" class="node">
<title>example</title>
<g id="a_node16"><a xlink:href="https://observablehq.com/@brianstringfellow/graphvis-subgraph-table-label" xlink:title="example">
<text text-anchor="middle" x="715" y="-241.3" font-family="Times,serif" font-size="14.00">example</text>
</a>
</g>
</g>
</g>
</svg>
