<?xml version="1.0" encoding="UTF-8" standalone="no"?>
<!DOCTYPE svg PUBLIC "-//W3C//DTD SVG 1.1//EN"
 "http://www.w3.org/Graphics/SVG/1.1/DTD/svg11.dtd">
<!-- Generated by graphviz version 2.42.4 (0)
 -->
<!-- Pages: 1 -->
<svg width="752pt" height="382pt"
 viewBox="0.00 0.00 751.50 382.00" xmlns="http://www.w3.org/2000/svg" xmlns:xlink="http://www.w3.org/1999/xlink">
<g id="graph0" class="graph" transform="scale(1 1) rotate(0) translate(4 378)">
<polygon fill="white" stroke="transparent" points="-4,4 -4,-378 747.5,-378 747.5,4 -4,4"/>
<g id="clust3" class="cluster">
<title>cluster_graphviz</title>
<g id="a_clust3"><a xlink:href="https://graphviz.gitlab.io/doc/info/lang.html" xlink:title="GraphViz Documentation">
<polygon fill="none" stroke="black" stroke-dasharray="1,5" points="539.5,-229.5 539.5,-366 735.5,-366 735.5,-229.5 539.5,-229.5"/>
<text text-anchor="middle" x="637.5" y="-350.8" font-family="Times,serif" font-size="14.00">GraphViz Documentation</text>
</a>
</g>
</g>
<!-- maintainer -->
<g id="node1" class="node">
<title>maintainer</title>
<g id="a_node1"><a xlink:href="https://github.com/matklad" xlink:title="maintainer">
<defs>
<linearGradient id="l_0" gradientUnits="userSpaceOnUse" x1="0" y1="-317" x2="95" y2="-317" >
<stop offset="0" style="stop-color:purple;stop-opacity:1.;"/>
<stop offset="1" style="stop-color:blue;stop-opacity:1.;"/>
</linearGradient>
</defs>
<polygon fill="url(#l_0)" stroke="purple:blue" points="95,-335 0,-335 0,-299 95,-299 95,-335"/>
<text text-anchor="middle" x="47.5" y="-313.3" font-family="Times,serif" font-size="14.00">maintainer</text>
</a>
</g>
</g>
<!-- rust_analyzer -->
<g id="node2" class="node">
<title>rust_analyzer</title>
<g id="a_node2"><a xlink:href="https://rust-analyzer.github.io/" xlink:title="Rust Analyzer">
<ellipse fill="none" stroke="black" cx="242.5" cy="-245" rx="75.29" ry="18"/>
<text text-anchor="middle" x="242.5" y="-241.3" font-family="Times,serif" font-size="14.00">Rust Analyzer</text>
</a>
</g>
</g>
<!-- maintainer&#45;&gt;rust_analyzer -->
<g id="edge7" class="edge">
<title>maintainer&#45;&gt;rust_analyzer</title>
<path fill="none" stroke="black" d="M104.72,-295.46C136.13,-284.18 174.32,-270.47 202.52,-260.35"/>
<polygon fill="black" stroke="black" points="103.43,-292.2 95.2,-298.88 105.8,-298.79 103.43,-292.2"/>
</g>
<!-- manual -->
<g id="node10" class="node">
<title>manual</title>
<g id="a_node10"><a xlink:href="https://rust-analyzer.github.io/manual.html#toolchain" xlink:title="manual">
<text text-anchor="middle" x="242.5" y="-179.8" font-family="Times,serif" font-size="14.00">manual</text>
</a>
</g>
</g>
<!-- rust_analyzer&#45;&gt;manual -->
<g id="edge5" class="edge">
<title>rust_analyzer&#45;&gt;manual</title>
<path fill="none" stroke="black" stroke-dasharray="5,2" d="M242.5,-226.79C242.5,-214.85 242.5,-199.6 242.5,-191.06"/>
</g>
<!-- lsp -->
<g id="node3" class="node">
<title>lsp</title>
<g id="a_node3"><a xlink:href="https://microsoft.github.io/language-server-protocol/" xlink:title="Language server protocol">
<ellipse fill="none" stroke="black" cx="242.5" cy="-317" rx="129.98" ry="18"/>
<text text-anchor="middle" x="242.5" y="-313.3" font-family="Times,serif" font-size="14.00">Language server protocol</text>
</a>
</g>
</g>
<!-- lsp&#45;&gt;rust_analyzer -->
<g id="edge2" class="edge">
<title>lsp&#45;&gt;rust_analyzer</title>
<path fill="none" stroke="black" d="M242.5,-298.7C242.5,-290.98 242.5,-281.71 242.5,-273.11"/>
<polygon fill="black" stroke="black" points="246,-273.1 242.5,-263.1 239,-273.1 246,-273.1"/>
</g>
<!-- rust -->
<g id="node4" class="node">
<title>rust</title>
<g id="a_node4"><a xlink:href="https://www.rust-lang.org/" xlink:title="Rust">
<ellipse fill="none" stroke="black" cx="422.5" cy="-317" rx="32.49" ry="18"/>
<text text-anchor="middle" x="422.5" y="-313.3" font-family="Times,serif" font-size="14.00">Rust</text>
</a>
</g>
</g>
<!-- rust&#45;&gt;rust_analyzer -->
<g id="edge1" class="edge">
<title>rust&#45;&gt;rust_analyzer</title>
<path fill="none" stroke="black" d="M397.39,-305.46C392.15,-303.29 386.66,-301.05 381.5,-299 351.58,-287.1 317.83,-274.21 291.08,-264.13"/>
<polygon fill="black" stroke="black" points="292.15,-260.8 281.56,-260.55 289.69,-267.35 292.15,-260.8"/>
</g>
<!-- belt -->
<g id="node5" class="node">
<title>belt</title>
<g id="a_node5"><a xlink:href="https://plv.mpi-sws.org/rustbelt/" xlink:title="belt">
<ellipse fill="none" stroke="black" cx="393.5" cy="-245" rx="28.7" ry="18"/>
<text text-anchor="middle" x="393.5" y="-241.3" font-family="Times,serif" font-size="14.00">belt</text>
</a>
</g>
</g>
<!-- rust&#45;&gt;belt -->
<g id="edge9" class="edge">
<title>rust&#45;&gt;belt</title>
<path fill="none" stroke="black" d="M415.48,-299.05C412.13,-290.97 408.05,-281.12 404.32,-272.11"/>
<polygon fill="black" stroke="black" points="407.52,-270.69 400.46,-262.79 401.05,-273.37 407.52,-270.69"/>
</g>
<!-- articles -->
<g id="node6" class="node">
<title>articles</title>
<g id="a_node6"><a xlink:href="https://alastairreid.github.io/RelatedWork/notes/rust-language/" xlink:title="articles">
<ellipse fill="none" stroke="black" cx="485.5" cy="-245" rx="45.49" ry="18"/>
<text text-anchor="middle" x="485.5" y="-241.3" font-family="Times,serif" font-size="14.00">articles</text>
</a>
</g>
</g>
<!-- rust&#45;&gt;articles -->
<g id="edge8" class="edge">
<title>rust&#45;&gt;articles</title>
<path fill="none" stroke="black" d="M436.48,-300.46C444.49,-291.57 454.72,-280.21 463.75,-270.16"/>
<polygon fill="black" stroke="black" points="466.59,-272.24 470.68,-262.47 461.39,-267.56 466.59,-272.24"/>
</g>
<!-- release -->
<g id="node7" class="node">
<title>release</title>
<g id="a_node7"><a xlink:href="https://github.com/rust-lang/rust-analyzer/releases" xlink:title="release">
<polygon fill="none" stroke="black" points="239.5,-140 171.5,-140 171.5,-72 239.5,-72 239.5,-140"/>
<text text-anchor="middle" x="205.5" y="-102.3" font-family="Times,serif" font-size="14.00">release</text>
</a>
</g>
</g>
<!-- musl -->
<g id="node8" class="node">
<title>musl</title>
<g id="a_node8"><a xlink:href="https://www.musl-libc.org/" xlink:title="musl">
<ellipse fill="none" stroke="black" cx="189.5" cy="-18" rx="33.29" ry="18"/>
<text text-anchor="middle" x="189.5" y="-14.3" font-family="Times,serif" font-size="14.00">musl</text>
</a>
</g>
</g>
<!-- release&#45;&gt;musl -->
<g id="edge10" class="edge">
<title>release&#45;&gt;musl</title>
<path fill="none" stroke="black" stroke-dasharray="5,2" d="M199.36,-72C197.07,-59.68 194.56,-46.21 192.65,-35.93"/>
</g>
<!-- ra_ap_rust_analyzer_documentation -->
<g id="node9" class="node">
<title>ra_ap_rust_analyzer_documentation</title>
<ellipse fill="none" stroke="black" cx="297.5" cy="-18" rx="56.59" ry="18"/>
<text text-anchor="middle" x="297.5" y="-14.3" font-family="Times,serif" font-size="14.00">document</text>
</g>
<!-- manual&#45;&gt;release -->
<g id="edge6" class="edge">
<title>manual&#45;&gt;release</title>
<path fill="none" stroke="black" stroke-dasharray="5,2" d="M239.22,-175.8C235.25,-167.72 228.31,-153.54 221.74,-140.14"/>
</g>
<!-- crates -->
<g id="node11" class="node">
<title>crates</title>
<g id="a_node11"><a xlink:href="https://rust-analyzer.github.io/manual.html#crates" xlink:title="crates">
<text text-anchor="middle" x="288.5" y="-102.3" font-family="Times,serif" font-size="14.00">crates</text>
</a>
</g>
</g>
<!-- manual&#45;&gt;crates -->
<g id="edge3" class="edge">
<title>manual&#45;&gt;crates</title>
<path fill="none" stroke="black" d="M246.58,-175.8C253.79,-163.96 268.96,-139.07 278.94,-122.69"/>
<polygon fill="black" stroke="black" points="282.15,-124.15 284.36,-113.79 276.17,-120.51 282.15,-124.15"/>
</g>
<!-- crates&#45;&gt;ra_ap_rust_analyzer_documentation -->
<g id="edge4" class="edge">
<title>crates&#45;&gt;ra_ap_rust_analyzer_documentation</title>
<path fill="none" stroke="black" d="M289.21,-98.25C290.36,-87.2 292.72,-64.63 294.63,-46.4"/>
<polygon fill="black" stroke="black" points="298.13,-46.59 295.69,-36.28 291.17,-45.86 298.13,-46.59"/>
</g>
<!-- cluster -->
<g id="node12" class="node">
<title>cluster</title>
<g id="a_node12"><a xlink:href="https://graphviz.gitlab.io/doc/info/lang.html#subgraphs-and-clusters" xlink:title="cluster">
<ellipse fill="none" stroke="black" cx="684.5" cy="-317" rx="42.79" ry="18"/>
<text text-anchor="middle" x="684.5" y="-313.3" font-family="Times,serif" font-size="14.00">cluster</text>
</a>
</g>
</g>
<!-- shape -->
<g id="node13" class="node">
<title>shape</title>
<g id="a_node13"><a xlink:href="https://graphviz.org/doc/info/shapes.html" xlink:title="shape">
<ellipse fill="none" stroke="black" cx="585.5" cy="-317" rx="38.19" ry="18"/>
<text text-anchor="middle" x="585.5" y="-313.3" font-family="Times,serif" font-size="14.00">shape</text>
</a>
</g>
</g>
<!-- example -->
<g id="node14" class="node">
<title>example</title>
<g id="a_node14"><a xlink:href="https://observablehq.com/@brianstringfellow/graphvis-subgraph-table-label" xlink:title="example">
<text text-anchor="middle" x="579.5" y="-241.3" font-family="Times,serif" font-size="14.00">example</text>
</a>
</g>
</g>
</g>
</svg>
