<?xml version="1.0" encoding="UTF-8" standalone="no"?>
<!DOCTYPE svg PUBLIC "-//W3C//DTD SVG 1.1//EN"
 "http://www.w3.org/Graphics/SVG/1.1/DTD/svg11.dtd">
<!-- Generated by graphviz version 2.44.0 ()
 -->
<!-- Pages: 1 -->
<svg width="890pt" height="383pt"
 viewBox="0.00 0.00 890.00 383.00" xmlns="http://www.w3.org/2000/svg" xmlns:xlink="http://www.w3.org/1999/xlink">
<g id="graph0" class="graph" transform="scale(1 1) rotate(0) translate(4 379)">
<polygon fill="white" stroke="transparent" points="-4,4 -4,-379 886,-379 886,4 -4,4"/>
<g id="clust3" class="cluster">
<title>cluster_graphviz</title>
<g id="a_clust3"><a xlink:href="https://graphviz.gitlab.io/doc/info/lang.html" xlink:title="GraphViz Documentation">
<defs>
<linearGradient id="l_0" gradientUnits="userSpaceOnUse" x1="680" y1="-298.75" x2="874" y2="-298.75" >
<stop offset="0" style="stop-color:yellow;stop-opacity:1.;"/>
<stop offset="1" style="stop-color:red;stop-opacity:1.;"/>
</linearGradient>
</defs>
<polygon fill="url(#l_0)" stroke="yellow:red" points="680,-230.5 680,-367 874,-367 874,-230.5 680,-230.5"/>
<text text-anchor="middle" x="777" y="-351.8" font-family="Times,serif" font-size="14.00">GraphViz Documentation</text>
</a>
</g>
</g>
<!-- victor -->
<g id="node1" class="node">
<title>victor</title>
<g id="a_node1"><a xlink:href="https://people.mpi-sws.org/~viktor/" xlink:title="victor">
<defs>
<linearGradient id="l_1" gradientUnits="userSpaceOnUse" x1="0" y1="-318" x2="62" y2="-318" >
<stop offset="0" style="stop-color:pink;stop-opacity:1.;"/>
<stop offset="1" style="stop-color:white;stop-opacity:1.;"/>
</linearGradient>
</defs>
<polygon fill="url(#l_1)" stroke="pink:white" points="62,-336 0,-336 0,-300 62,-300 62,-336"/>
<text text-anchor="middle" x="31" y="-314.3" font-family="Times,serif" font-size="14.00">victor</text>
</a>
</g>
</g>
<!-- maintainer -->
<g id="node2" class="node">
<title>maintainer</title>
<g id="a_node2"><a xlink:href="https://github.com/matklad" xlink:title="maintainer">
<defs>
<linearGradient id="l_2" gradientUnits="userSpaceOnUse" x1="80" y1="-318" x2="172" y2="-318" >
<stop offset="0" style="stop-color:pink;stop-opacity:1.;"/>
<stop offset="1" style="stop-color:white;stop-opacity:1.;"/>
</linearGradient>
</defs>
<polygon fill="url(#l_2)" stroke="pink:white" points="172,-336 80,-336 80,-300 172,-300 172,-336"/>
<text text-anchor="middle" x="126" y="-314.3" font-family="Times,serif" font-size="14.00">maintainer</text>
</a>
</g>
</g>
<!-- rust_analyzer -->
<g id="node3" class="node">
<title>rust_analyzer</title>
<g id="a_node3"><a xlink:href="https://rust-analyzer.github.io/" xlink:title="Rust Analyzer">
<ellipse fill="none" stroke="black" cx="318" cy="-246" rx="74.19" ry="18"/>
<text text-anchor="middle" x="318" y="-242.3" font-family="Times,serif" font-size="14.00">Rust Analyzer</text>
</a>
</g>
</g>
<!-- maintainer&#45;&gt;rust_analyzer -->
<g id="edge7" class="edge">
<title>maintainer&#45;&gt;rust_analyzer</title>
<path fill="none" stroke="black" d="M181.88,-296.63C212.94,-285.3 250.84,-271.49 278.75,-261.31"/>
<polygon fill="black" stroke="black" points="180.67,-293.34 172.48,-300.05 183.07,-299.92 180.67,-293.34"/>
</g>
<!-- manual -->
<g id="node13" class="node">
<title>manual</title>
<g id="a_node13"><a xlink:href="https://rust-analyzer.github.io/manual.html#toolchain" xlink:title="manual">
<text text-anchor="middle" x="318" y="-180.8" font-family="Times,serif" font-size="14.00">manual</text>
</a>
</g>
</g>
<!-- rust_analyzer&#45;&gt;manual -->
<g id="edge5" class="edge">
<title>rust_analyzer&#45;&gt;manual</title>
<path fill="none" stroke="black" stroke-dasharray="5,2" d="M318,-227.79C318,-215.85 318,-200.6 318,-192.06"/>
</g>
<!-- lsp -->
<g id="node4" class="node">
<title>lsp</title>
<g id="a_node4"><a xlink:href="https://microsoft.github.io/language-server-protocol/" xlink:title="Language server protocol">
<ellipse fill="none" stroke="black" cx="318" cy="-318" rx="128.08" ry="18"/>
<text text-anchor="middle" x="318" y="-314.3" font-family="Times,serif" font-size="14.00">Language server protocol</text>
</a>
</g>
</g>
<!-- lsp&#45;&gt;rust_analyzer -->
<g id="edge2" class="edge">
<title>lsp&#45;&gt;rust_analyzer</title>
<path fill="none" stroke="black" d="M318,-299.7C318,-291.98 318,-282.71 318,-274.11"/>
<polygon fill="black" stroke="black" points="321.5,-274.1 318,-264.1 314.5,-274.1 321.5,-274.1"/>
</g>
<!-- rust -->
<g id="node5" class="node">
<title>rust</title>
<g id="a_node5"><a xlink:href="https://www.rust-lang.org/" xlink:title="Rust">
<ellipse fill="none" stroke="black" cx="495" cy="-318" rx="30.59" ry="18"/>
<text text-anchor="middle" x="495" y="-314.3" font-family="Times,serif" font-size="14.00">Rust</text>
</a>
</g>
</g>
<!-- rust&#45;&gt;rust_analyzer -->
<g id="edge1" class="edge">
<title>rust&#45;&gt;rust_analyzer</title>
<path fill="none" stroke="black" d="M470.94,-306.62C465.7,-304.41 460.17,-302.1 455,-300 425.54,-288.04 392.27,-275.16 365.9,-265.09"/>
<polygon fill="black" stroke="black" points="367.11,-261.81 356.52,-261.51 364.62,-268.35 367.11,-261.81"/>
</g>
<!-- belt -->
<g id="node6" class="node">
<title>belt</title>
<g id="a_node6"><a xlink:href="https://plv.mpi-sws.org/rustbelt/" xlink:title="belt">
<ellipse fill="none" stroke="black" cx="468" cy="-246" rx="30.59" ry="18"/>
<text text-anchor="middle" x="468" y="-242.3" font-family="Times,serif" font-size="14.00">belt</text>
</a>
</g>
</g>
<!-- rust&#45;&gt;belt -->
<g id="edge9" class="edge">
<title>rust&#45;&gt;belt</title>
<path fill="none" stroke="black" d="M488.46,-300.05C485.38,-292.06 481.63,-282.33 478.18,-273.4"/>
<polygon fill="black" stroke="black" points="481.34,-271.86 474.48,-263.79 474.81,-274.38 481.34,-271.86"/>
</g>
<!-- articles -->
<g id="node7" class="node">
<title>articles</title>
<g id="a_node7"><a xlink:href="https://alastairreid.github.io/RelatedWork/notes/rust-language/" xlink:title="articles">
<ellipse fill="none" stroke="black" cx="567" cy="-246" rx="50.09" ry="18"/>
<text text-anchor="middle" x="567" y="-242.3" font-family="Times,serif" font-size="14.00">articles</text>
</a>
</g>
</g>
<!-- rust&#45;&gt;articles -->
<g id="edge8" class="edge">
<title>rust&#45;&gt;articles</title>
<path fill="none" stroke="black" d="M510.27,-302.15C519.86,-292.83 532.43,-280.61 543.3,-270.04"/>
<polygon fill="black" stroke="black" points="545.77,-272.52 550.5,-263.04 540.89,-267.5 545.77,-272.52"/>
</g>
<!-- release -->
<g id="node8" class="node">
<title>release</title>
<g id="a_node8"><a xlink:href="https://github.com/rust-lang/rust-analyzer/releases" xlink:title="release">
<polygon fill="none" stroke="black" points="314.5,-141 245.5,-141 245.5,-72 314.5,-72 314.5,-141"/>
<text text-anchor="middle" x="280" y="-102.8" font-family="Times,serif" font-size="14.00">release</text>
</a>
</g>
</g>
<!-- musl -->
<g id="node9" class="node">
<title>musl</title>
<g id="a_node9"><a xlink:href="https://www.musl-libc.org/" xlink:title="musl">
<ellipse fill="none" stroke="black" cx="269" cy="-18" rx="30.59" ry="18"/>
<text text-anchor="middle" x="269" y="-14.3" font-family="Times,serif" font-size="14.00">musl</text>
</a>
</g>
</g>
<!-- release&#45;&gt;musl -->
<g id="edge10" class="edge">
<title>release&#45;&gt;musl</title>
<path fill="none" stroke="black" stroke-dasharray="5,2" d="M275.72,-71.81C274.17,-59.67 272.49,-46.46 271.2,-36.3"/>
</g>
<!-- Coq -->
<g id="node10" class="node">
<title>Coq</title>
<g id="a_node10"><a xlink:href="https://coq.inria.fr/" xlink:title="Coq">
<ellipse fill="none" stroke="black" cx="571" cy="-318" rx="27" ry="18"/>
<text text-anchor="middle" x="571" y="-314.3" font-family="Times,serif" font-size="14.00">Coq</text>
</a>
</g>
</g>
<!-- mio -->
<g id="node11" class="node">
<title>mio</title>
<g id="a_node11"><a xlink:href="https://docs.rs/mio/1.0.2/mio/" xlink:title="mio">
<ellipse fill="none" stroke="black" cx="643" cy="-318" rx="27" ry="18"/>
<text text-anchor="middle" x="643" y="-314.3" font-family="Times,serif" font-size="14.00">mio</text>
</a>
</g>
</g>
<!-- ra_ap_rust_analyzer_documentation -->
<g id="node12" class="node">
<title>ra_ap_rust_analyzer_documentation</title>
<ellipse fill="none" stroke="black" cx="368" cy="-18" rx="50.09" ry="18"/>
<text text-anchor="middle" x="368" y="-14.3" font-family="Times,serif" font-size="14.00">document</text>
</g>
<!-- manual&#45;&gt;release -->
<g id="edge6" class="edge">
<title>manual&#45;&gt;release</title>
<path fill="none" stroke="black" stroke-dasharray="5,2" d="M314.63,-176.76C310.6,-168.69 303.55,-154.6 296.86,-141.22"/>
</g>
<!-- crates -->
<g id="node14" class="node">
<title>crates</title>
<g id="a_node14"><a xlink:href="https://rust-analyzer.github.io/manual.html#crates" xlink:title="crates">
<text text-anchor="middle" x="362" y="-102.8" font-family="Times,serif" font-size="14.00">crates</text>
</a>
</g>
</g>
<!-- manual&#45;&gt;crates -->
<g id="edge3" class="edge">
<title>manual&#45;&gt;crates</title>
<path fill="none" stroke="black" d="M321.9,-176.76C328.8,-164.84 343.31,-139.78 352.85,-123.3"/>
<polygon fill="black" stroke="black" points="356.06,-124.75 358.04,-114.34 350,-121.24 356.06,-124.75"/>
</g>
<!-- crates&#45;&gt;ra_ap_rust_analyzer_documentation -->
<g id="edge4" class="edge">
<title>crates&#45;&gt;ra_ap_rust_analyzer_documentation</title>
<path fill="none" stroke="black" d="M362.45,-99C363.22,-87.91 364.83,-64.74 366.11,-46.18"/>
<polygon fill="black" stroke="black" points="369.61,-46.4 366.81,-36.18 362.62,-45.91 369.61,-46.4"/>
</g>
<!-- cluster -->
<g id="node15" class="node">
<title>cluster</title>
<g id="a_node15"><a xlink:href="https://graphviz.gitlab.io/doc/info/lang.html#subgraphs-and-clusters" xlink:title="cluster">
<ellipse fill="none" stroke="black" cx="821" cy="-318" rx="44.69" ry="18"/>
<text text-anchor="middle" x="821" y="-314.3" font-family="Times,serif" font-size="14.00">cluster</text>
</a>
</g>
</g>
<!-- shape -->
<g id="node16" class="node">
<title>shape</title>
<g id="a_node16"><a xlink:href="https://graphviz.org/doc/info/shapes.html" xlink:title="shape">
<ellipse fill="none" stroke="black" cx="723" cy="-318" rx="35.19" ry="18"/>
<text text-anchor="middle" x="723" y="-314.3" font-family="Times,serif" font-size="14.00">shape</text>
</a>
</g>
</g>
<!-- example -->
<g id="node17" class="node">
<title>example</title>
<g id="a_node17"><a xlink:href="https://observablehq.com/@brianstringfellow/graphvis-subgraph-table-label" xlink:title="example">
<text text-anchor="middle" x="777" y="-242.3" font-family="Times,serif" font-size="14.00">example</text>
</a>
</g>
</g>
</g>
</svg>
